<svg width="1440" height="273" viewBox="0 0 1440 273" fill="none" xmlns="http://www.w3.org/2000/svg">
<path d="M0 49.1589L16 75.8589C32 102.159 64 156.159 96 139.859C128 124.159 160 38.1589 192 33.1589C224 28.1589 256 102.159 288 118.459C320 134.159 352 92.1589 384 86.4589C416 81.1589 448 113.159 480 134.459C512 156.159 544 166.159 576 145.159C608 124.159 640 70.1589 672 49.1589C704 28.1589 736 38.1589 768 33.1589C800 28.1589 832 6.15889 864 1.15889C896 -3.84111 928 6.15889 960 54.4589C992 102.159 1024 188.159 1056 209.159C1088 230.159 1120 188.159 1152 166.459C1184 145.159 1216 145.159 1248 161.159C1280 177.159 1312 209.159 1344 198.459C1376 188.159 1408 134.159 1424 107.859L1440 81.1589V273.159H1424C1408 273.159 1376 273.159 1344 273.159C1312 273.159 1280 273.159 1248 273.159C1216 273.159 1184 273.159 1152 273.159C1120 273.159 1088 273.159 1056 273.159C1024 273.159 992 273.159 960 273.159C928 273.159 896 273.159 864 273.159C832 273.159 800 273.159 768 273.159C736 273.159 704 273.159 672 273.159C640 273.159 608 273.159 576 273.159C544 273.159 512 273.159 480 273.159C448 273.159 416 273.159 384 273.159C352 273.159 320 273.159 288 273.159C256 273.159 224 273.159 192 273.159C160 273.159 128 273.159 96 273.159C64 273.159 32 273.159 16 273.159H0V49.1589Z" fill="url(#paint0_linear_80:628)"/>
<defs>
<linearGradient id="paint0_linear_80:628" x1="720" y1="0" x2="720" y2="273.159" gradientUnits="userSpaceOnUse">
<stop stop-color="#B64CCD" stop-opacity="0.92"/>
<stop offset="1" stop-color="#764CCD" stop-opacity="0"/>
</linearGradient>
</defs>
</svg>
